<svg width="57" height="65" viewBox="0 0 57 65" fill="none" xmlns="http://www.w3.org/2000/svg">
<path d="M35.961 0C38.1667 0.0306531 40.2711 0.449135 42.2363 1.44869C43.9688 2.33564 45.3815 3.57575 46.3458 5.285C46.9724 6.41335 47.3835 7.64854 47.5579 8.92739C47.9164 11.3823 47.5539 13.7573 46.7443 16.0796C46.2685 17.4416 45.6101 18.7191 44.8971 19.9738C43.4444 22.5281 41.5779 24.7417 39.4068 26.7042C36.6215 29.2244 33.5671 31.4303 30.2989 33.282C29.0327 33.997 27.72 34.5974 26.308 34.9646C25.4429 35.1982 24.5498 35.3112 23.6538 35.3004C22.4743 35.2764 21.5514 34.7393 20.8337 33.8344C20.171 33.0222 19.8295 31.995 19.8741 30.9477C19.8819 30.6563 19.924 30.3669 19.9994 30.0854C20.4266 28.5681 21.007 27.1147 21.8746 25.7893C22.5376 24.7771 23.3279 23.8781 24.3615 23.2351C25.511 22.5194 26.7604 22.2135 28.1118 22.5087C28.5343 22.6078 28.9319 22.7926 29.28 23.0518C30.1696 23.6875 30.1229 24.6851 29.6958 25.3222C29.3299 25.8758 28.9208 26.3996 28.4723 26.8888C27.7127 27.7071 26.9057 28.4808 26.118 29.2724C25.421 29.9728 24.766 30.7078 24.2349 31.5454C23.9597 31.9799 23.7058 32.423 23.6298 32.9448C23.5338 33.5992 23.8737 34.045 24.5341 34.1063C24.8757 34.1342 25.2196 34.0996 25.549 34.0043C26.5638 33.7238 27.5061 33.2713 28.4317 32.7835C29.8591 32.0285 31.1765 31.1056 32.4606 30.132C34.0172 28.9519 35.5305 27.7211 36.9253 26.3524C38.5139 24.795 39.9299 23.1025 41.0135 21.1493C41.8051 19.7233 42.3882 18.2173 42.6474 16.602C42.8766 15.1793 42.7487 13.7932 42.0896 12.4872C41.7723 11.8416 41.2759 11.301 40.6596 10.9298C40.3751 10.7585 40.0612 10.6415 39.734 10.5847C38.5432 10.3734 37.3911 10.5467 36.2589 10.9245C35.0787 11.319 33.9839 11.8947 32.9197 12.5238C30.6101 13.8939 28.2977 15.2633 26.0967 16.8059C24.9932 17.5789 23.9237 18.4012 22.8422 19.2049C21.8652 19.9312 20.895 20.6662 19.8275 21.2599C18.9612 21.7533 18.0235 22.1091 17.048 22.3148C15.8392 22.56 14.7251 22.3321 13.7015 21.6751C12.6393 20.9934 11.8957 20.0578 11.5691 18.8197C11.3612 18.038 11.4432 17.263 11.6224 16.4914C11.8843 15.3586 12.3814 14.3323 13.0012 13.3594C14.5338 10.9565 16.461 8.91806 18.702 7.1755C22.0232 4.59331 25.6776 2.60485 29.6305 1.16615C31.66 0.423794 33.8002 0.0295322 35.961 0Z" fill="#E20010"/>
<path d="M8.63702 54.9383C8.6257 54.184 8.53973 53.5056 8.10393 52.9172C7.8917 52.6329 7.5979 52.4199 7.26163 52.3068C6.39535 51.9963 5.51307 52.0329 4.65278 52.2988C3.96309 52.512 3.29805 52.8026 2.62301 53.0618C2.48974 53.1111 2.36846 53.1744 2.2072 53.2464C1.88934 52.4581 1.57681 51.6931 1.24962 50.8934C1.72341 50.6688 2.16988 50.4396 2.63034 50.243C3.69121 49.7892 4.79139 49.478 5.94821 49.4081C7.10503 49.3381 8.24653 49.3994 9.2994 49.9605C10.4902 50.5909 11.3498 51.5011 11.7097 52.8259C11.7616 52.9993 11.7927 53.1782 11.8023 53.359C11.8483 55.0789 11.9102 56.7988 11.9176 58.5187C11.9222 59.6942 11.8449 60.8703 11.8103 62.0465C11.8041 62.2077 11.7369 62.3606 11.6224 62.4743C10.7994 63.3806 9.79251 64.007 8.65168 64.4274C7.42835 64.8738 6.12557 65.061 4.82604 64.9772C3.62657 64.9106 2.59103 64.4194 1.71541 63.6045C0.839801 62.7895 0.228072 61.8053 0.0574804 60.5991C-0.17575 58.9472 0.300706 57.5138 1.48818 56.3343C2.25184 55.576 3.19276 55.1842 4.25296 55.0456C5.42578 54.893 6.60259 54.9336 7.7794 54.937L8.63702 54.9383ZM8.48309 57.6238C8.41397 57.6101 8.3441 57.6006 8.27385 57.5951C7.87403 57.5871 7.46954 57.5731 7.06772 57.5791C6.58593 57.5865 6.10214 57.5885 5.62302 57.6338C5.12791 57.6811 4.64745 57.8257 4.26362 58.1562C3.62657 58.7053 3.43732 59.4223 3.59259 60.2306C3.78583 61.2302 4.34425 61.9285 5.33981 62.2257C5.85314 62.3793 6.39669 62.4022 6.92112 62.2924C7.40857 62.2032 7.86323 61.985 8.23787 61.6607C8.30129 61.6115 8.35344 61.5493 8.39079 61.4782C8.42815 61.4072 8.44985 61.329 8.45444 61.2488C8.46976 60.8977 8.51508 60.5471 8.51774 60.196C8.52308 59.3917 8.51108 58.5874 8.50442 57.783C8.50042 57.7296 8.4933 57.6764 8.48309 57.6238Z" fill="#E20010"/>
<path d="M48.7172 57.5569C45.8585 57.5569 43.0531 57.4956 40.2083 57.5702C40.223 57.7701 40.2317 57.9594 40.2496 58.1439C40.3229 58.8989 40.4855 59.6326 40.8047 60.325C41.0529 60.8897 41.4382 61.3835 41.9256 61.7617C42.6986 62.3487 43.5808 62.4447 44.5064 62.3254C45.2714 62.2268 45.9838 61.9469 46.6941 61.6651C47.02 61.5364 47.3432 61.3985 47.6937 61.2552C48.0269 61.9523 48.3534 62.6373 48.6932 63.3423C48.6306 63.3876 48.572 63.4383 48.5067 63.4756C47.1206 64.2979 45.6319 64.8277 44.024 64.9676C42.558 65.0949 41.1586 64.8543 39.8925 64.0433C39.0302 63.4909 38.4265 62.7106 37.9213 61.8376C37.2992 60.7516 36.9226 59.5424 36.8178 58.2952C36.6064 56.0211 37.0893 53.9038 38.2665 51.9433C39.0875 50.5806 40.313 49.8403 41.8469 49.5851C43.257 49.3371 44.7094 49.5788 45.9631 50.2701C46.6655 50.6506 47.1546 51.2497 47.5578 51.9214C48.0908 52.807 48.3714 53.7832 48.506 54.7948C48.6153 55.6104 48.6499 56.436 48.7152 57.2603C48.7232 57.345 48.7172 57.4329 48.7172 57.5569ZM45.2521 54.968C45.0862 54.2077 44.9729 53.4307 44.4751 52.7863C44.2255 52.466 43.8748 52.2396 43.4802 52.1439C42.4307 51.866 41.3758 52.3498 40.9247 53.3434C40.7634 53.6972 40.6688 54.0817 40.5515 54.4542C40.4989 54.6228 40.4649 54.7981 40.4229 54.968C40.7048 55.0426 44.9636 55.046 45.2534 54.97L45.2521 54.968Z" fill="#E20010"/>
<path d="M29.9637 45.9428L33.3749 45.415V49.6045C34.1319 49.6498 34.8529 49.6005 35.5779 49.6785V52.2594C34.8449 52.2713 34.1272 52.2494 33.3789 52.2947C33.3789 52.4399 33.3789 52.5486 33.3789 52.6572C33.3727 55.1414 33.3673 57.6259 33.3629 60.1105C33.3629 60.5017 33.3942 60.8935 33.4295 61.2834C33.4855 61.8831 33.818 62.2636 34.3991 62.4095C34.7196 62.4908 35.0488 62.5368 35.374 62.5988L35.7005 62.6654V64.8558C35.6638 64.8739 35.6248 64.8869 35.5846 64.8944C34.6163 64.9377 33.6521 64.9124 32.7158 64.6279C31.8016 64.352 31.0393 63.8522 30.5221 63.0286C30.2283 62.5621 30.079 62.0377 30.0144 61.4959C29.9753 61.1566 29.9562 60.8153 29.9571 60.4737C29.9571 55.7558 29.9597 51.0383 29.9651 46.3213L29.9637 45.9428Z" fill="#E20010"/>
<path d="M50.5925 45.9458L53.8911 45.374V45.8292C53.8911 50.1139 53.8929 54.3987 53.8964 58.6835C53.8964 59.4678 53.9031 60.2521 53.9091 61.0371C53.9144 61.8114 54.1969 62.2059 54.9366 62.4365C55.188 62.506 55.4432 62.5607 55.7009 62.6004C55.8582 62.6297 56.0175 62.6437 56.2087 62.6671V64.9047C56.191 64.9195 56.1699 64.9297 56.1474 64.9347C55.2105 64.9727 54.2776 64.9574 53.3666 64.6908C52.8147 64.5319 52.3007 64.2626 51.856 63.8992C51.0277 63.2215 50.6905 62.3132 50.6039 61.289C50.5785 60.9891 50.5819 60.6859 50.5825 60.3847C50.5825 55.6975 50.5859 51.0106 50.5925 46.3243V45.9458Z" fill="#E20010"/>
<path d="M23.332 64.7068H20.0001C19.9961 64.5676 19.9895 64.4403 19.9888 64.3143C19.9853 62.3126 19.9824 60.3108 19.9802 58.309C19.9762 56.7097 19.9662 55.1104 19.9668 53.5111C19.9679 53.2211 19.9902 52.9316 20.0335 52.6448C20.0828 52.3176 20.254 52.0451 20.4919 51.8152C21.8007 50.5411 23.3687 49.7774 25.1565 49.4482C26.277 49.2428 27.4253 49.2412 28.5464 49.4436C28.6057 49.4542 28.665 49.4676 28.723 49.4822C28.7516 49.4896 28.7789 49.5036 28.8342 49.5249C28.4557 50.4871 27.9946 51.4067 27.5601 52.3156C27.041 52.3156 26.5493 52.3003 26.0588 52.319C25.2118 52.3471 24.3804 52.5542 23.6192 52.9267C23.4033 53.0327 23.3227 53.1646 23.3233 53.4132C23.3327 57.056 23.3349 60.6988 23.33 64.3417L23.332 64.7068Z" fill="#E20010"/>
<path d="M17.5425 49.7461C17.5778 54.7386 17.5392 59.7017 17.5712 64.6955H14.3106C14.3026 64.5749 14.2866 64.4489 14.2866 64.323C14.2866 61.1844 14.2866 58.0453 14.2866 54.9058C14.2866 53.4671 14.2986 52.0284 14.3046 50.5897C14.3046 50.4804 14.3046 50.3711 14.3046 50.2339L17.5425 49.7461Z" fill="#E20010"/>
<path d="M15.7768 48.2765C14.1848 48.2725 13.1879 46.6878 13.8483 45.1918C14.2541 44.2742 14.9511 43.9257 15.9567 43.9317C17.3041 43.943 18.303 45.2831 17.9818 46.5925C17.7252 47.6387 16.8856 48.2791 15.7768 48.2765Z" fill="#E20010"/>
</svg>
