<svg width="63" height="54" viewBox="0 0 63 54" fill="none" xmlns="http://www.w3.org/2000/svg">
<path d="M26.4067 0.0386732V0H49.3736V0.0402508L26.4067 0.0386732Z" fill="#E4B935"/>
<path d="M26.4066 0.0390625H49.3735C49.1999 0.874078 49.0294 1.70988 48.8518 2.54411C48.172 5.73632 47.4901 8.92747 46.8061 12.1176C46.5299 13.4143 46.2536 14.7118 45.9742 16.0069C45.9387 16.1648 45.9545 16.2208 46.1321 16.2232C46.7635 16.2327 47.3949 16.2232 48.0263 16.1987C48.3351 16.1804 48.645 16.2005 48.9489 16.2587C49.5013 16.3755 49.6552 16.7741 49.3246 17.2374C49.1396 17.4784 48.8992 17.6712 48.6237 17.7993C48.001 18.1205 47.327 18.2579 46.6411 18.347C46.3032 18.3989 45.9618 18.4253 45.6199 18.426C45.4873 18.426 45.4533 18.4875 45.4312 18.5941C45.2208 19.5938 45.0085 20.5956 44.7943 21.5995L42.8457 30.7878C42.8062 30.9741 42.7668 31.1596 42.7297 31.3474C42.7107 31.4531 42.6728 31.5171 42.5521 31.495C42.5193 31.4918 42.4862 31.4918 42.4534 31.495H19.9814C19.7099 31.495 19.7107 31.495 19.7691 31.2172C20.8941 25.9198 22.0185 20.6224 23.1423 15.325C23.3933 14.1433 23.6451 12.9621 23.8976 11.7814C23.9196 11.713 23.9151 11.639 23.885 11.5738C23.5496 10.91 23.443 10.1895 23.3728 9.46179C23.1936 7.61181 23.6238 5.84471 24.1281 4.09102C24.2741 3.5859 24.8234 3.27494 25.4224 3.34282C25.6426 3.36728 25.7058 3.3073 25.7468 3.09894C25.9465 2.10134 26.1651 1.10769 26.3782 0.112461C26.3855 0.087189 26.395 0.0626233 26.4066 0.0390625ZM34.2201 16.3763C34.2789 16.37 34.3381 16.37 34.3969 16.3763C35.1183 16.5405 35.4876 16.1143 35.7796 15.5579C35.8128 15.4939 35.8467 15.4292 35.8751 15.3637C36.078 14.902 36.0772 14.9012 35.7039 14.5745C35.6793 14.5514 35.6529 14.5302 35.6249 14.5113C35.4616 14.4119 35.4624 14.3053 35.5626 14.1428C35.8731 13.6377 36.3268 13.2364 36.8661 12.99C37.4054 12.7436 38.0058 12.6633 38.5909 12.7592C38.7911 12.7863 38.9798 12.8683 39.1363 12.996C39.6493 13.4072 40.1796 13.7947 40.7211 14.1688C41.2191 14.5224 41.7389 14.8443 42.2774 15.1325C42.4771 15.2367 42.4882 15.2319 42.47 15.0172C42.4353 14.6116 42.395 14.2062 42.3493 13.801C42.2475 12.8902 41.972 12.0513 41.3895 11.3197C40.972 10.7956 40.5751 10.255 40.1489 9.73723C40.1074 9.69266 40.0766 9.63919 40.059 9.58092C40.0414 9.52265 40.0373 9.46111 40.0471 9.40102C40.1418 8.6544 40.1433 8.64966 39.6777 8.05931C38.6517 6.75864 37.4331 5.64424 36.1877 4.55982C36.1144 4.50423 36.0289 4.46689 35.9383 4.45091C35.0772 4.23907 34.1964 4.11818 33.3101 4.09023C32.7955 4.06655 32.3188 4.12338 31.8966 4.43907C31.5517 4.69715 31.1863 4.73977 30.753 4.66795C29.3544 4.43512 27.9488 4.24413 26.5447 4.04524C26.1359 3.98763 25.731 3.88739 25.3135 3.90791C24.9544 3.92449 24.7548 4.04919 24.664 4.34515C24.2165 5.80682 23.8747 7.2898 23.9245 8.83277C23.9504 10.2567 24.4218 11.6368 25.2725 12.779C26.2196 14.056 27.5013 14.8752 28.9669 15.43C30.6567 16.0677 32.423 16.2958 34.2162 16.3732L34.2201 16.3763ZM34.0623 26.0626C33.9794 26.1171 33.9249 26.1534 33.8697 26.1881C33.1854 26.6175 32.5019 27.0484 31.8137 27.4714C31.6748 27.5567 31.6685 27.6009 31.7979 27.7082C32.9029 28.6198 34.0031 29.5385 35.1056 30.454C35.1332 30.4776 35.1585 30.5179 35.2169 30.4903C35.2287 30.2867 35.2524 30.0775 35.2493 29.8684C35.2489 29.6322 35.2986 29.3987 35.3953 29.1833C35.7023 28.4509 35.9959 27.7129 36.2974 26.9782C36.336 26.8881 36.3535 26.7904 36.3487 26.6925C36.3218 26.0421 36.2966 25.3918 36.2769 24.7415C36.2735 24.6238 36.2378 24.5094 36.1735 24.4108C35.4758 23.2822 34.7828 22.1512 34.0828 21.0234C34.0517 20.9785 34.0316 20.9271 34.0239 20.8731C34.0162 20.8191 34.0212 20.7641 34.0386 20.7124C34.1554 20.3091 34.2611 19.9026 34.3772 19.4985C34.4209 19.3404 34.4343 19.1755 34.4166 19.0124C34.3756 18.5672 34.3377 18.1221 34.3069 17.6762C34.2982 17.5278 34.2564 17.4789 34.0993 17.4781C33.0541 17.4788 32.0114 17.3755 30.9866 17.1695C28.3182 16.617 26.1675 15.2816 24.6332 13.0031C24.6024 12.9581 24.5874 12.8934 24.5054 12.8752C24.4967 12.9123 24.4872 12.9486 24.4793 12.985C23.7985 16.2145 23.1179 19.4446 22.4375 22.6752C22.3523 23.0785 22.3523 23.0833 22.758 23.1259C23.02 23.1535 23.2694 23.2372 23.5472 23.1361C24.8929 22.6523 26.2472 22.193 27.5968 21.7155C27.6637 21.6847 27.7379 21.6733 27.811 21.6825C27.8841 21.6917 27.9532 21.7212 28.0104 21.7676C29.8019 23.0462 31.5972 24.32 33.3961 25.5891L34.0623 26.0626ZM27.7531 22.4661C27.7531 23.4321 27.7531 24.3847 27.7531 25.3381C27.7548 25.5008 27.7228 25.662 27.6592 25.8117C27.1383 27.0516 26.6237 28.2946 26.1012 29.5345C26.0715 29.5919 26.0572 29.6561 26.0597 29.7207C26.0622 29.7853 26.0814 29.8481 26.1154 29.9031C26.2259 30.0972 26.3238 30.2977 26.4145 30.5021C26.4312 30.5538 26.4652 30.5982 26.5108 30.6278C26.5563 30.6574 26.6107 30.6704 26.6647 30.6647C27.9212 30.6576 29.1769 30.6647 30.4325 30.6592C30.487 30.6592 30.5493 30.6844 30.6078 30.6205C30.4925 30.3837 30.3812 30.1383 30.2565 29.9015C30.1926 29.7876 30.1735 29.6539 30.2029 29.5266C30.5107 28.0223 30.8106 26.5157 31.1231 25.0122C31.1547 24.863 31.1231 24.7888 31.0047 24.7059C29.9745 23.9888 28.9461 23.269 27.9196 22.5466C27.8742 22.4984 27.8127 22.4686 27.7468 22.4629L27.7531 22.4661ZM45.1282 17.9248C45.2726 17.9248 45.417 17.9295 45.5615 17.9248C46.4241 17.8901 47.2757 17.7835 48.0965 17.4994C48.3491 17.424 48.5819 17.2938 48.7784 17.1182C48.8715 17.029 48.956 16.924 48.9015 16.7891C48.8534 16.6691 48.7232 16.6604 48.6142 16.6596C48.3514 16.6596 48.087 16.6525 47.825 16.6762C46.7165 16.7821 45.598 16.6991 44.5173 16.4308C42.5947 15.9533 40.8813 15.0464 39.2965 13.8815C39.0909 13.7209 38.8452 13.6196 38.5862 13.5887C37.8467 13.5098 37.2042 13.6811 36.7259 14.2935C36.6375 14.4064 36.6352 14.4782 36.7512 14.5808C37.3612 15.1215 38.0187 15.6062 38.7156 16.029C40.6808 17.2271 42.7999 17.9232 45.1219 17.9216L45.1282 17.9248ZM39.2452 17.0708C39.2657 17.2082 39.2846 17.3076 39.2949 17.4142C39.3273 17.7535 39.4385 18.0834 39.4046 18.4291C39.3004 19.4891 39.0747 20.5309 38.9358 21.5861C38.8285 22.4077 38.7188 23.2301 38.763 24.0603C38.7985 24.7312 39.0163 25.3358 39.5853 25.7343C40.122 26.11 40.7116 26.2244 41.3311 25.9048C41.3793 25.8845 41.4198 25.8493 41.4467 25.8045C41.4737 25.7597 41.4857 25.7075 41.4811 25.6554C41.4786 25.4321 41.4567 25.2095 41.4156 24.9901C41.388 24.8512 41.343 24.8149 41.193 24.8417C40.6358 24.9419 40.253 24.541 40.362 23.9877C40.4575 23.5016 40.6508 23.0485 40.8355 22.5932C41.2846 21.5001 41.8181 20.4441 42.2845 19.3573C42.4037 19.0511 42.4768 18.7291 42.5016 18.4015C42.5142 18.2942 42.5016 18.2389 42.3674 18.2216C42.1466 18.1893 41.9278 18.144 41.7123 18.0858C40.8484 17.8591 40.0186 17.5177 39.2452 17.0708Z" fill="#DFAC0F"/>
<path d="M34.5775 40.6155C34.8088 40.6527 35.0355 40.7141 35.2539 40.7987C35.9705 41.0978 36.3525 41.6526 36.3872 42.4095C36.4519 43.8072 35.7787 44.834 34.6675 45.6035C33.9532 46.0954 33.1054 46.3566 32.2382 46.3517C31.0883 46.3604 29.9376 46.3517 28.7869 46.3517C28.479 46.3517 28.4096 46.2649 28.4712 45.9666C29.1673 42.5934 29.8636 39.2202 30.5603 35.847C30.6313 35.5005 30.7181 35.4326 31.0654 35.4326C31.8081 35.4326 32.5507 35.4326 33.2942 35.4326C33.9816 35.4326 34.6596 35.5115 35.2957 35.7917C35.9855 36.0956 36.5032 36.5723 36.5774 37.3584C36.6832 38.4799 36.3051 39.423 35.4015 40.1302C35.1442 40.3198 34.8681 40.4824 34.5775 40.6155ZM31.5334 45.0771V45.0653C31.7765 45.0653 32.0196 45.0755 32.2619 45.0653C33.4292 45.0092 34.1947 44.336 34.4054 43.1885C34.5759 42.2556 34.1229 41.61 33.1924 41.4695C32.6115 41.3835 32.0251 41.449 31.4419 41.4285C31.3456 41.4285 31.34 41.4821 31.3266 41.5484C31.2619 41.8697 31.1948 42.1909 31.1277 42.5113C30.9636 43.3005 30.8026 44.0898 30.6329 44.879C30.5982 45.0369 30.6281 45.0961 30.8049 45.0842C31.0464 45.0653 31.2903 45.0771 31.5334 45.0771ZM32.1885 40.1515C32.4376 40.1665 32.6877 40.1522 32.9335 40.1089C33.8403 39.9013 34.5325 39.0939 34.6225 38.1358C34.6943 37.3741 34.3589 36.9211 33.6131 36.768C33.2824 36.7001 32.9469 36.7191 32.6139 36.6978C32.385 36.6828 32.3076 36.7522 32.2642 36.9803C32.074 37.9842 31.8633 38.9842 31.6486 39.9842C31.6147 40.142 31.662 40.1602 31.7946 40.1515C31.9272 40.1428 32.0567 40.1515 32.1885 40.1515Z" fill="white"/>
<path d="M43.7652 39.4447C43.8686 39.1882 43.9641 38.9712 44.043 38.7525C44.0653 38.6661 44.1179 38.5906 44.1912 38.5397C44.2645 38.4889 44.3537 38.4661 44.4424 38.4755C44.7778 38.4826 45.1132 38.4755 45.4487 38.4755C45.6973 38.4755 45.7699 38.5679 45.7225 38.8054C45.3542 40.6254 44.9859 42.4456 44.6176 44.2662C44.5802 44.413 44.5674 44.565 44.5797 44.716C44.6137 44.9686 44.6981 45.0578 44.9507 45.0909C45.1085 45.1114 45.1748 45.1983 45.148 45.3466C45.103 45.5984 45.0509 45.8494 44.9901 46.098C44.9771 46.1739 44.9368 46.2425 44.8768 46.2907C44.8167 46.339 44.7411 46.3636 44.6642 46.36C44.3483 46.3747 44.032 46.3439 43.725 46.2685C43.2396 46.1406 42.9744 45.8273 42.9128 45.3214C42.9057 45.2638 42.9034 45.2054 42.8979 45.1375C42.8126 45.158 42.7826 45.229 42.74 45.278C41.7613 46.3466 40.5491 46.7254 39.1363 46.48C38.1845 46.3142 37.5926 45.7199 37.3795 44.7705C37.1972 43.9615 37.295 43.1628 37.4584 42.3665C37.651 41.4194 37.9754 40.5267 38.5634 39.7391C39.5791 38.3666 41.2144 38.0754 42.4582 38.3871C43.0336 38.5363 43.4582 38.8851 43.7652 39.4447ZM39.1087 43.821C39.1089 43.9991 39.1242 44.1768 39.1545 44.3522C39.2405 44.8762 39.5294 45.1667 40.0534 45.2543C41.0794 45.4263 42.0613 44.9804 42.5719 44.0602C43.0783 43.1334 43.3253 42.0872 43.2869 41.0319C43.2688 40.2852 42.9144 39.822 42.2862 39.6381C41.9175 39.5369 41.5305 39.5221 41.1552 39.5947C40.4907 39.7067 40.1032 40.1519 39.8317 40.7185C39.3613 41.6988 39.194 42.7508 39.1087 43.821Z" fill="white"/>
<path d="M58.9858 35.5C58.7674 36.5628 58.5485 37.6236 58.3291 38.6822C58.1113 39.7422 57.8942 40.8021 57.6748 41.8692C57.7774 41.8628 57.8106 41.7902 57.8587 41.7429C58.8445 40.7666 59.8318 39.7919 60.8105 38.8085C60.9101 38.6998 61.0325 38.6143 61.1689 38.5583C61.3053 38.5022 61.4524 38.4769 61.5997 38.4841C61.9604 38.4975 62.3227 38.4841 62.6841 38.4912C62.7631 38.4912 62.8625 38.4699 62.8972 38.5488C62.932 38.6278 62.8357 38.683 62.7812 38.7335C61.571 39.8727 60.3572 41.0097 59.1397 42.1446C59.0118 42.2638 59.0118 42.338 59.1026 42.4785C59.8571 43.6473 60.6021 44.8225 61.3527 45.9953C61.3882 46.0506 61.4237 46.1066 61.4545 46.1634C61.5192 46.2818 61.4837 46.3647 61.3495 46.3655C60.7773 46.3655 60.2051 46.371 59.6337 46.3584C59.4625 46.3584 59.3638 46.2187 59.2801 46.0758C58.7124 45.1003 58.1426 44.1269 57.5706 43.1556C57.5359 43.0964 57.5193 43.0207 57.4317 42.9796C57.2692 43.7689 57.1089 44.5478 56.9471 45.3284C56.8966 45.5731 56.8485 45.8177 56.7932 46.0608C56.738 46.3039 56.6457 46.3694 56.4097 46.371C56.0419 46.371 55.6733 46.371 55.3047 46.371C54.9764 46.371 54.9149 46.2984 54.9804 45.9835C55.1824 45.0072 55.3876 44.0309 55.5897 43.0538C56.0327 40.9223 56.4723 38.794 56.9085 36.6689C56.9153 36.6147 56.9361 36.5633 56.9687 36.5196C57.0014 36.4759 57.0448 36.4414 57.0947 36.4195C57.659 36.1401 58.2186 35.8512 58.7806 35.5679C58.8403 35.5247 58.912 35.501 58.9858 35.5Z" fill="white"/>
<path d="M49.263 39.7488C49.5367 39.3825 49.8525 39.0495 50.2038 38.7568C51.0333 38.078 52.7144 38.1838 53.4941 38.8965C54.1255 39.475 54.2968 40.2161 54.1603 41.0195C53.9827 42.0605 53.7467 43.0913 53.5407 44.1275C53.4957 44.3525 53.4531 44.5806 53.5155 44.811C53.5589 44.9728 53.6283 45.103 53.8311 45.1015C54.0016 45.1015 54.0679 45.2056 54.0395 45.3627C53.9945 45.6137 53.944 45.8654 53.8856 46.114C53.8721 46.1869 53.8328 46.2525 53.7747 46.2986C53.7167 46.3448 53.644 46.3684 53.5699 46.365C53.2543 46.3823 52.9379 46.3501 52.6323 46.2695C51.922 46.0699 51.5716 45.5592 51.6063 44.77C51.6292 44.2341 51.7862 43.7227 51.8801 43.2002C52.008 42.4899 52.2219 41.7953 52.2613 41.0692C52.2704 40.9252 52.2704 40.7808 52.2613 40.6367C52.2061 39.8396 51.7089 39.4592 50.9267 39.5918C50.6824 39.6313 50.4492 39.722 50.2425 39.858C50.0357 39.9941 49.8601 40.1723 49.7271 40.381C49.3751 40.8972 49.2259 41.486 49.1012 42.0874C48.8292 43.3975 48.5548 44.7076 48.2781 46.0178C48.2197 46.294 48.1257 46.3658 47.8432 46.3666C47.462 46.3666 47.08 46.3666 46.6988 46.3666C46.4565 46.3666 46.3831 46.2672 46.4289 46.0288C46.7972 44.2288 47.1671 42.4288 47.5385 40.6288C47.5796 40.4299 47.6285 40.2342 47.5685 40.0259C47.5212 39.868 47.4359 39.7654 47.2528 39.7504C47.0326 39.7323 46.9853 39.6557 47.0295 39.4347C47.0737 39.2137 47.1179 38.9967 47.1637 38.7789C47.1736 38.6959 47.2142 38.6196 47.2774 38.5649C47.3405 38.5101 47.4218 38.4809 47.5054 38.4829C47.8277 38.4623 48.1512 38.4937 48.4635 38.576C48.9836 38.7268 49.2007 38.9927 49.2528 39.531C49.2528 39.5878 49.2528 39.6447 49.263 39.7488Z" fill="white"/>
<path d="M3.16815 40.1314H4.3599C4.95183 40.1314 5.54376 40.1314 6.13569 40.1314C6.4206 40.1314 6.48927 40.2151 6.43323 40.4944C6.38903 40.7131 6.34168 40.9309 6.29274 41.1487C6.23039 41.4234 6.1349 41.4991 5.83578 41.4991C4.92815 41.4991 4.02053 41.4991 3.11369 41.4928C2.94085 41.4928 2.86903 41.526 2.83193 41.713C2.55728 43.1037 2.26526 44.4904 1.98034 45.8794C1.90142 46.274 1.83828 46.3277 1.42788 46.3277C1.05299 46.3277 0.678098 46.3277 0.303999 46.3277C0.0325008 46.3277 -0.0377418 46.2401 0.0175049 45.9733C0.348985 44.3665 0.681255 42.7601 1.01431 41.1542C1.37736 39.3995 1.73936 37.645 2.10031 35.8908C2.1887 35.4615 2.2479 35.4094 2.69145 35.4102L7.8215 35.4196C8.18771 35.4196 8.24296 35.4867 8.16798 35.8364C8.12378 36.0416 8.08195 36.2475 8.03302 36.452C7.97225 36.7069 7.88227 36.7779 7.62025 36.7779C6.43639 36.7779 5.25253 36.7779 4.06867 36.7779C3.91082 36.7779 3.84453 36.8071 3.81138 36.9752C3.60618 38.021 3.38677 39.0675 3.16815 40.1314Z" fill="white"/>
<path d="M18.6935 46.5256C18.0688 46.5198 17.4492 46.4132 16.8585 46.2099C16.6503 46.1451 16.4608 46.0312 16.306 45.8776C16.1482 45.7127 16.1482 45.5619 16.2863 45.3851C16.3763 45.2723 16.4765 45.1681 16.5728 45.0592C16.8096 44.7885 16.849 44.779 17.2042 44.9013C17.6967 45.0671 18.1923 45.217 18.7156 45.2431C19.1789 45.2675 19.6343 45.2494 20.0715 45.071C20.2436 45.0035 20.3962 44.8942 20.5156 44.753C20.6349 44.6118 20.7172 44.443 20.755 44.2621C20.8284 43.9771 20.7455 43.7806 20.4953 43.6228C20.229 43.4665 19.9443 43.344 19.6477 43.2581C19.3115 43.1492 18.976 43.0316 18.6343 42.9424C17.411 42.6165 17.1166 41.6939 17.3557 40.6434C17.6406 39.3924 18.6303 38.5124 19.946 38.3246C20.8828 38.1928 21.8078 38.2457 22.6902 38.6348C22.8675 38.7048 23.0312 38.8053 23.174 38.9315C23.3208 39.072 23.3318 39.1888 23.2056 39.3443C23.0477 39.5321 22.8836 39.7089 22.7265 39.8968C22.6476 39.9891 22.5615 39.9828 22.4605 39.9536C22.0762 39.8439 21.7092 39.6758 21.3138 39.604C20.8631 39.525 20.4117 39.4974 19.9665 39.6253C19.7746 39.676 19.5989 39.7752 19.4564 39.9134C19.3139 40.0516 19.2093 40.2242 19.1528 40.4145C19.0108 40.8368 19.1662 41.1382 19.5908 41.2716C20.1165 41.4366 20.6445 41.5928 21.1693 41.7531C21.4346 41.8268 21.6899 41.9328 21.9294 42.0688C22.3729 42.3332 22.5923 42.7301 22.6184 43.2376C22.6886 44.5998 21.9554 45.6803 20.6042 46.2107C20.0241 46.438 19.4196 46.528 18.6935 46.5256Z" fill="white"/>
<path d="M25.2901 39.6588C25.0494 39.6588 24.8063 39.6588 24.564 39.6588C24.283 39.6588 24.2207 39.5854 24.2743 39.3162C24.313 39.1229 24.3533 38.9303 24.3998 38.7393C24.413 38.6602 24.4549 38.5888 24.5176 38.5388C24.5802 38.4888 24.6592 38.4638 24.7392 38.4686C24.9563 38.4686 25.1741 38.456 25.3903 38.4686C25.5356 38.4788 25.5797 38.4236 25.6026 38.2894C25.6626 37.9343 25.74 37.5791 25.8078 37.2263C25.8205 37.1616 25.826 37.1024 25.8978 37.0685C26.5474 36.7417 27.1961 36.4118 27.8638 36.0732C27.8812 36.2855 27.8125 36.4631 27.7786 36.6431C27.6752 37.1955 27.5623 37.7377 27.4455 38.2839C27.4147 38.4268 27.436 38.4812 27.5994 38.4725C27.8678 38.4591 28.1385 38.4662 28.4076 38.4725C28.6254 38.4765 28.6933 38.5554 28.6546 38.7709C28.616 38.9863 28.5694 39.1821 28.5197 39.3857C28.4699 39.5893 28.3437 39.6674 28.1456 39.6659C27.863 39.6659 27.5797 39.6659 27.2971 39.6659C27.1961 39.6659 27.1448 39.6887 27.1227 39.7961C26.8296 41.2641 26.5339 42.731 26.2356 44.1969C26.1994 44.365 26.2078 44.5397 26.2601 44.7036C26.2999 44.816 26.3745 44.9128 26.4729 44.9802C26.5713 45.0476 26.6886 45.082 26.8078 45.0785C27.3295 45.0919 27.3342 45.0966 27.2348 45.6104C27.204 45.7683 27.1693 45.9316 27.1322 46.0911C27.1213 46.164 27.0844 46.2305 27.0282 46.2782C26.972 46.326 26.9005 46.3517 26.8267 46.3507C26.4069 46.361 25.9831 46.3886 25.564 46.3144C24.7432 46.1676 24.3367 45.683 24.3225 44.8401C24.313 44.2876 24.4638 43.7612 24.5719 43.2277C24.8087 42.0573 25.0525 40.8876 25.2925 39.7172C25.2943 39.6977 25.2935 39.678 25.2901 39.6588Z" fill="white"/>
<path d="M14.3929 39.3494C14.4694 39.2514 14.5508 39.1573 14.6368 39.0676C15.2264 38.5088 15.9469 38.3218 16.7378 38.3368C16.8956 38.3368 16.9643 38.3873 16.9217 38.5649C16.8364 38.9153 16.7709 39.2704 16.6951 39.6232C16.6281 39.9389 16.5247 39.991 16.2098 39.9523C15.4024 39.8537 14.5192 40.1315 14.2564 41.294C13.906 42.8488 13.5705 44.4076 13.2304 45.9648C13.1515 46.3365 13.082 46.3933 12.6969 46.3925C12.3488 46.3925 12 46.3925 11.6519 46.3925C11.3796 46.3925 11.3125 46.3049 11.3701 46.0366C11.7579 44.234 12.1462 42.4319 12.5351 40.6303C12.5768 40.4714 12.5975 40.3076 12.5966 40.1433C12.584 39.8813 12.4893 39.7724 12.2265 39.7298C12.0686 39.7045 11.9944 39.6161 12.0252 39.4551C12.0702 39.2183 12.1152 38.9816 12.1689 38.7448C12.1799 38.6651 12.2198 38.5923 12.2811 38.5402C12.3424 38.4881 12.4207 38.4603 12.5011 38.4623C12.9084 38.4559 13.3164 38.4623 13.7118 38.583C14.0796 38.6951 14.3053 38.9319 14.3369 39.3312L14.3929 39.3494Z" fill="white"/>
<path d="M7.48882 45.013C7.5054 44.4503 7.66798 43.9128 7.78479 43.3682C8.10601 41.8687 8.43591 40.3691 8.76345 38.8696C8.82343 38.5941 8.92129 38.5192 9.19753 38.5176C9.56584 38.5176 9.93415 38.5176 10.3025 38.5176C10.5795 38.5176 10.6466 38.5965 10.589 38.8641C10.2012 40.6604 9.81208 42.4561 9.42167 44.2514C9.36823 44.4689 9.3488 44.6933 9.36406 44.9167C9.38773 45.1685 9.47692 45.264 9.72 45.3003C9.86522 45.3224 9.93231 45.4084 9.90784 45.5465C9.86207 45.8054 9.80998 46.0627 9.74999 46.3176C9.73503 46.3858 9.69687 46.4467 9.64203 46.4898C9.5872 46.533 9.51908 46.5558 9.44929 46.5544C9.05467 46.567 8.66006 46.5355 8.28911 46.3784C7.73901 46.1495 7.47462 45.687 7.48882 45.013Z" fill="white"/>
<path d="M35.0612 51.1793C35.7274 51.5574 35.7858 52.3158 35.2191 52.8628C34.8055 53.2653 33.9026 53.3947 33.3896 53.1264C33.27 53.0688 33.1693 52.9783 33.0994 52.8655C33.0295 52.7526 32.9933 52.6222 32.995 52.4895C32.9795 52.2617 33.0283 52.0341 33.1359 51.8327C33.2435 51.6314 33.4055 51.4643 33.6035 51.3506C33.7022 51.289 33.8103 51.2425 33.9129 51.1927C33.9129 51.1777 33.9129 51.1596 33.9066 51.1564C33.3454 50.866 33.4701 50.3333 33.7637 49.9158C33.9122 49.72 34.1248 49.5828 34.3643 49.5282C34.6323 49.4575 34.9125 49.4467 35.1851 49.4967C35.4472 49.5401 35.6871 49.649 35.7684 49.93C35.818 50.0797 35.8285 50.2396 35.7988 50.3944C35.7691 50.5493 35.7002 50.694 35.5987 50.8147C35.459 50.9789 35.2743 51.0775 35.0612 51.1793ZM33.6674 52.2922C33.6616 52.4046 33.6976 52.5153 33.7686 52.6028C33.8396 52.6902 33.9405 52.7483 34.0518 52.7657C34.5735 52.8778 35.0778 52.3442 34.9476 51.8186C34.9266 51.7147 34.8704 51.6212 34.7884 51.5541C34.7064 51.4869 34.6037 51.4501 34.4977 51.45C34.0534 51.4311 33.6659 51.8226 33.6674 52.2922ZM34.759 49.9497C34.6835 49.9492 34.6088 49.9635 34.5389 49.9919C34.469 50.0203 34.4055 50.0622 34.3518 50.1152C34.2981 50.1682 34.2555 50.2313 34.2262 50.3008C34.1969 50.3703 34.1816 50.4449 34.1812 50.5203C34.178 50.5727 34.1853 50.6252 34.2027 50.6748C34.2201 50.7244 34.2471 50.77 34.2824 50.8089C34.3176 50.8479 34.3602 50.8794 34.4077 50.9017C34.4553 50.9239 34.5068 50.9365 34.5593 50.9386C34.8474 50.9433 35.1512 50.6229 35.1575 50.3143C35.1615 50.0981 35.0005 49.9513 34.759 49.9497Z" fill="white"/>
<path d="M38.7119 50.2062C38.6956 50.0305 38.6219 49.865 38.5022 49.7354C38.3826 49.6057 38.2235 49.5191 38.0497 49.4888C37.8026 49.4446 37.5482 49.4644 37.311 49.5464C36.6306 49.7919 36.3836 50.3459 36.3197 51.0002C36.2526 51.7042 36.6614 52.0672 37.367 51.9851C37.6338 51.9536 37.8177 51.8044 38.0071 51.63C37.9885 51.8597 37.9158 52.0818 37.7948 52.278C37.5904 52.6473 37.2849 52.8352 36.8524 52.7626C36.7091 52.7461 36.5677 52.716 36.4302 52.6726C36.1934 52.5834 36.1879 52.7925 36.1208 52.9007C36.0371 53.0356 36.1831 53.0648 36.2605 53.1027C36.9132 53.4271 37.6298 53.2874 38.0757 52.6955C38.6345 51.9638 38.8302 51.1154 38.7119 50.2062ZM38.1468 50.5558C38.1179 50.7779 38.0463 50.9923 37.936 51.1872C37.8113 51.3916 37.6401 51.5148 37.3883 51.5029C37.0726 51.495 36.9345 51.3538 36.9416 50.9923C36.9562 50.7779 37.0119 50.5684 37.1058 50.3751C37.1647 50.2422 37.2627 50.1305 37.3867 50.0547C37.5706 49.9481 37.7735 49.8905 37.9637 50.0121C38.1539 50.1336 38.1823 50.3427 38.1468 50.5558Z" fill="white"/>
<path d="M40.4922 52.3269H39.0952C38.9018 52.3269 38.8648 52.2661 38.9531 52.0901C38.9882 52.0275 39.0312 51.9697 39.081 51.9181C39.7195 51.1857 40.3683 50.4619 40.9941 49.7193C41.178 49.5006 41.3887 49.5235 41.6168 49.5354C41.7455 49.5417 41.6958 49.6482 41.6808 49.7177C41.5692 50.2638 41.4566 50.8095 41.343 51.3546C41.3236 51.4778 41.2972 51.5998 41.264 51.72C41.2191 51.8589 41.2806 51.8668 41.3943 51.8731C41.4834 51.8778 41.6421 51.7942 41.6381 51.9915C41.6326 52.2598 41.5742 52.3451 41.3737 52.3237C41.1733 52.3024 41.103 52.3821 41.0904 52.5605C41.0813 52.6254 41.0684 52.6897 41.0517 52.7531C40.9531 53.2361 40.9531 53.2322 40.4598 53.2053C40.3375 53.1982 40.3154 53.1493 40.3375 53.0475C40.3888 52.8162 40.4369 52.585 40.4922 52.3269ZM40.8615 50.5243L39.7369 51.866C40.0226 51.866 40.2554 51.866 40.4882 51.866C40.5027 51.868 40.5175 51.8669 40.5316 51.8629C40.5457 51.8589 40.5588 51.852 40.5701 51.8426C40.5813 51.8333 40.5905 51.8217 40.5971 51.8086C40.6037 51.7955 40.6074 51.7812 40.6082 51.7665C40.6871 51.3719 40.7684 50.9757 40.8607 50.5235L40.8615 50.5243Z" fill="white"/>
<path d="M17.9794 53.2482C17.6781 53.2478 17.3797 53.1888 17.1009 53.0746C17.0315 53.0446 16.8949 53.0264 16.9573 52.9167C17.0196 52.807 17.0307 52.5939 17.2533 52.6468C17.558 52.7277 17.8724 52.7665 18.1877 52.762C18.3535 52.7581 18.5158 52.7146 18.6613 52.635C19.0283 52.4298 19.0417 52.0383 18.6786 51.8244C18.5 51.7296 18.3155 51.6463 18.1262 51.575C17.3472 51.2396 17.2027 50.4796 17.8207 49.8908C18.3179 49.4172 18.917 49.377 19.5507 49.5396C19.6076 49.5546 19.6628 49.5751 19.7188 49.594C20.0195 49.6974 20.0251 49.7195 19.8609 49.9792C19.8524 49.9982 19.8402 50.0154 19.825 50.0297C19.8098 50.0439 19.7919 50.0551 19.7724 50.0624C19.7529 50.0697 19.7321 50.0731 19.7113 50.0724C19.6904 50.0717 19.6699 50.0668 19.651 50.0581C19.3429 49.9621 19.0191 49.9267 18.6976 49.9539C18.5885 49.9607 18.4826 49.9933 18.3886 50.049C18.2946 50.1047 18.2152 50.1819 18.1569 50.2744C17.9991 50.5309 18.0575 50.7637 18.3266 50.8955C18.5089 50.9847 18.7015 51.0533 18.8878 51.1323C19.6912 51.4732 19.8049 52.3698 19.1151 52.908C18.8278 53.129 18.4482 53.2458 17.9794 53.2482Z" fill="white"/>
<path d="M22.6364 50.9439C22.8203 50.7458 22.9742 50.5588 23.2307 50.5019C23.926 50.3488 24.4059 50.8129 24.2638 51.509C24.1975 51.8365 24.1273 52.1633 24.0641 52.4916C24.0421 52.6084 24.0286 52.7134 24.1857 52.7781C24.3088 52.8286 24.2023 52.9509 24.1983 53.0409C24.1999 53.0605 24.1973 53.0803 24.1908 53.0989C24.1843 53.1174 24.174 53.1345 24.1606 53.1489C24.1471 53.1633 24.1309 53.1747 24.1128 53.1825C24.0947 53.1903 24.0752 53.1942 24.0555 53.194C23.6245 53.243 23.3546 52.9659 23.4304 52.5366C23.4872 52.2138 23.5567 51.8934 23.6198 51.5713C23.6313 51.5194 23.6385 51.4666 23.6411 51.4135C23.6466 51.2264 23.6411 51.037 23.443 50.94C23.2725 50.8555 23.005 50.9273 22.8519 51.0978C22.6988 51.2683 22.6285 51.4924 22.5812 51.7213C22.4896 52.1578 22.3949 52.5934 22.3089 53.0314C22.308 53.0557 22.3021 53.0795 22.2914 53.1013C22.2807 53.1231 22.2656 53.1424 22.247 53.1579C22.2284 53.1735 22.2067 53.1849 22.1834 53.1916C22.1601 53.1982 22.1356 53.1998 22.1116 53.1964C21.6499 53.2074 21.6507 53.2114 21.7438 52.7591C21.8464 52.2577 21.9482 51.7566 22.0492 51.2556C22.0737 51.1333 22.1084 51.0039 21.9277 50.9581C21.8488 50.9376 21.8661 50.8626 21.8866 50.8105C21.9229 50.7198 21.878 50.588 22.0169 50.5485C22.0837 50.5274 22.1543 50.5212 22.2238 50.5303C22.2933 50.5394 22.3599 50.5637 22.419 50.6014C22.4781 50.6391 22.5282 50.6894 22.5658 50.7485C22.6033 50.8077 22.6274 50.8744 22.6364 50.9439Z" fill="white"/>
<path d="M28.552 52.0848C28.3815 52.0848 28.2094 52.0934 28.0398 52.0848C27.9135 52.0769 27.8819 52.1305 27.8819 52.2426C27.8653 52.6577 28.0895 52.8779 28.5007 52.8274C28.6698 52.8062 28.8363 52.7681 28.9979 52.7138C29.1234 52.6719 29.17 52.7138 29.2197 52.8203C29.2694 52.9269 29.2473 53.009 29.1408 53.0626C28.8164 53.2273 28.451 53.2937 28.0895 53.2536C27.4778 53.1936 27.2008 52.8393 27.2584 52.2237C27.2832 51.8891 27.3713 51.5624 27.5181 51.2608C27.8204 50.6586 28.3862 50.3808 29.035 50.511C29.4122 50.5899 29.6348 50.837 29.6538 51.2213C29.6601 51.3394 29.6521 51.4579 29.6301 51.5741C29.5512 51.9545 29.3933 52.0832 29.0058 52.0911C28.855 52.0911 28.7035 52.0911 28.5528 52.0911L28.552 52.0848ZM27.9861 51.653H28.8282C28.8605 51.6569 28.8932 51.6515 28.9225 51.6375C28.9518 51.6236 28.9766 51.6016 28.994 51.5741C29.0792 51.4281 29.0389 51.1219 28.915 51.0019C28.7911 50.882 28.6064 50.8725 28.4233 50.9767C28.1668 51.1211 28.0729 51.3792 27.9861 51.653Z" fill="white"/>
<path d="M10.3724 35.5158C10.5823 35.5158 10.7923 35.511 11.0038 35.5158C11.1948 35.5213 11.2698 35.6089 11.2334 35.792C11.1514 36.2035 11.0646 36.6133 10.973 37.0216C10.9249 37.2324 10.8152 37.3184 10.5942 37.32C10.1995 37.32 9.80492 37.32 9.4103 37.32C9.16406 37.316 9.09461 37.2221 9.14749 36.9822C9.22641 36.5978 9.31165 36.2135 9.39768 35.8307C9.44898 35.6018 9.55079 35.5205 9.78046 35.515C9.97698 35.515 10.1751 35.515 10.3708 35.515L10.3724 35.5158Z" fill="white"/>
<path d="M31.9379 50.2879C31.7248 50.3763 31.5338 50.456 31.3413 50.5326C31.2939 50.5515 31.2252 50.5847 31.196 50.5658C31.1392 50.5294 31.1842 50.4576 31.1874 50.4008C31.1992 50.1956 31.3042 50.0764 31.5031 50.0014C31.8645 49.8625 32.2134 49.6976 32.5709 49.5453C32.623 49.5224 32.6806 49.4663 32.7287 49.4995C32.7769 49.5326 32.7358 49.6092 32.7287 49.6629C32.5022 50.7757 32.2718 51.8877 32.0476 53.0006C32.0176 53.1497 31.9513 53.2034 31.7959 53.201C31.3468 53.1947 31.3499 53.201 31.4423 52.763C31.6064 51.9864 31.7659 51.2082 31.9269 50.4308C31.9324 50.3937 31.9316 50.3534 31.9379 50.2879Z" fill="white"/>
<path d="M24.7793 52.3048C24.7874 51.9422 24.8741 51.5857 25.0334 51.2599C25.3626 50.5733 26.2402 50.2647 26.9103 50.6025C26.9955 50.6459 27.1541 50.668 27.0981 50.825C27.0342 51.0002 26.8787 51.0752 26.7256 51.0026C26.1218 50.7185 25.6948 51.076 25.533 51.5795C25.4461 51.8278 25.4064 52.0901 25.4162 52.353C25.4367 52.6797 25.6396 52.8534 25.9687 52.8265C26.1249 52.8059 26.278 52.7667 26.4249 52.7097C26.5038 52.6837 26.5748 52.6584 26.6151 52.7681C26.6482 52.8589 26.7122 52.9378 26.604 53.0302C26.2718 53.3135 25.4147 53.3356 25.0729 53.0625C24.8235 52.8684 24.773 52.5969 24.7793 52.3048Z" fill="white"/>
<path d="M20.0991 52.6007C20.1717 52.2384 20.257 51.8114 20.3462 51.3781C20.3919 51.1532 20.4456 50.9299 20.4851 50.7041C20.4857 50.6799 20.4915 50.656 20.502 50.6341C20.5125 50.6122 20.5276 50.5928 20.5461 50.5772C20.5647 50.5615 20.5864 50.55 20.6097 50.5433C20.6331 50.5366 20.6575 50.5349 20.6816 50.5384C21.148 50.5242 21.1457 50.5202 21.0525 50.9701C20.9491 51.4713 20.8465 51.9717 20.7479 52.4736C20.7242 52.5951 20.7013 52.7104 20.871 52.7759C20.991 52.8217 20.8892 52.9337 20.8852 53.0213C20.8813 53.1089 20.8576 53.1729 20.7573 53.1926C20.403 53.2621 20.0991 53.0229 20.0991 52.6007Z" fill="white"/>
<path d="M21.0563 49.4114C21.1352 49.4114 21.196 49.4114 21.2544 49.4114C21.3128 49.4114 21.3657 49.4367 21.3538 49.503C21.327 49.6506 21.2939 49.7966 21.2576 49.9418C21.2433 49.997 21.1928 50.016 21.1376 50.0262C20.6719 50.1099 20.6183 50.0444 20.713 49.5874C20.7611 49.3396 20.9395 49.4327 21.0563 49.4114Z" fill="white"/>
<path d="M34.216 16.3723C32.4228 16.2934 30.6565 16.0669 28.9652 15.4252C27.4996 14.8728 26.2179 14.0512 25.2708 12.7742C24.4201 11.632 23.9487 10.2519 23.9227 8.82798C23.8762 7.28502 24.2148 5.80204 24.6623 4.34037C24.753 4.04441 24.9527 3.91971 25.3118 3.90313C25.7293 3.88261 26.1342 3.98206 26.543 4.04046C27.9471 4.23935 29.3527 4.43034 30.7512 4.66317C31.1837 4.73499 31.55 4.69237 31.8948 4.43429C32.3171 4.1186 32.7938 4.06177 33.3084 4.08545C34.1951 4.11542 35.0763 4.23842 35.9373 4.45244C36.0279 4.46843 36.1134 4.50576 36.1867 4.56136C37.4322 5.64577 38.6484 6.76018 39.6767 8.06085C40.1424 8.64962 40.1408 8.65435 40.0461 9.40255C40.0363 9.46265 40.0404 9.52418 40.0581 9.58246C40.0757 9.64073 40.1064 9.69419 40.1479 9.73877C40.5741 10.2565 40.9711 10.7971 41.3886 11.3212C41.9711 12.0528 42.2465 12.8918 42.3483 13.8026C42.3941 14.2072 42.4343 14.6126 42.4691 15.0188C42.4872 15.2334 42.4762 15.2382 42.2765 15.134C41.738 14.8458 41.2182 14.5239 40.7201 14.1703C40.1787 13.7962 39.6483 13.4087 39.1353 12.9975C38.9789 12.8698 38.7901 12.7879 38.59 12.7608C38.0049 12.6648 37.4045 12.7452 36.8652 12.9915C36.3259 13.2379 35.8721 13.6392 35.5617 14.1443C35.4614 14.3069 35.4606 14.4134 35.624 14.5129C35.652 14.5318 35.6783 14.5529 35.7029 14.576C36.0762 14.8996 36.077 14.9004 35.8742 15.3653C35.8458 15.4308 35.8118 15.4955 35.7787 15.5594C35.4867 16.1119 35.1173 16.542 34.3959 16.3778C34.3363 16.3695 34.276 16.3676 34.216 16.3723ZM36.1291 9.48937L35.0629 8.29288C34.9737 8.19265 34.9247 8.29288 34.8726 8.3355C34.3328 8.80589 33.794 9.27785 33.2563 9.7514C33.2105 9.79165 33.1426 9.81848 33.1332 9.9053L36.1291 9.48937Z" fill="#162D4C"/>
<path d="M34.0562 26.0593L33.3924 25.5857C31.5961 24.3135 29.8009 23.0404 28.0067 21.7666C27.9494 21.7202 27.8804 21.6907 27.8073 21.6815C27.7342 21.6723 27.66 21.6837 27.5931 21.7145C26.2435 22.1881 24.8892 22.6482 23.5435 23.1351C23.2633 23.2362 23.0139 23.1525 22.7543 23.1249C22.3486 23.0823 22.3486 23.0775 22.4338 22.6742C23.1126 19.442 23.7916 16.2109 24.4709 12.9808C24.4788 12.9445 24.4882 12.9082 24.4969 12.8711C24.5758 12.8892 24.594 12.954 24.6248 12.999C26.159 15.2775 28.3097 16.616 30.9781 17.1653C32.0029 17.3713 33.0456 17.4747 34.0909 17.4739C34.2487 17.4739 34.2898 17.5237 34.2985 17.672C34.3261 18.118 34.3671 18.5631 34.4082 19.0082C34.4259 19.1713 34.4125 19.3363 34.3687 19.4944C34.2527 19.8985 34.1469 20.3049 34.0301 20.7082C34.0128 20.7599 34.0078 20.815 34.0154 20.8689C34.0231 20.9229 34.0433 20.9744 34.0743 21.0192C34.7744 22.147 35.4673 23.278 36.165 24.4066C36.2293 24.5052 36.2651 24.6197 36.2684 24.7373C36.2881 25.3876 36.3134 26.038 36.3402 26.6883C36.3451 26.7862 36.3275 26.8839 36.2889 26.974C35.9874 27.7088 35.6938 28.4467 35.3868 29.1791C35.2902 29.3946 35.2404 29.6281 35.2408 29.8642C35.2408 30.0734 35.2203 30.2825 35.2085 30.4861C35.1501 30.5137 35.1248 30.4735 35.0972 30.4498C33.9922 29.5343 32.8952 28.6156 31.7895 27.7041C31.66 27.5975 31.6664 27.5533 31.8053 27.4673C32.4935 27.0442 33.177 26.6133 33.8612 26.184C33.9188 26.15 33.9733 26.1137 34.0562 26.0593Z" fill="#162D4C"/>
<path d="M27.7469 22.4629C27.8115 22.4695 27.8715 22.4992 27.9158 22.5466C28.9445 23.2663 29.9728 23.9853 31.001 24.7035C31.1209 24.7864 31.1509 24.8614 31.1193 25.0098C30.8037 26.5093 30.5069 28.0199 30.1991 29.5242C30.1697 29.6515 30.1888 29.7852 30.2528 29.8991C30.3775 30.1359 30.4895 30.3798 30.604 30.6181C30.5456 30.682 30.4832 30.6568 30.4288 30.6568C29.1731 30.6568 27.9174 30.6568 26.6609 30.6623C26.6069 30.668 26.5526 30.655 26.507 30.6254C26.4615 30.5958 26.4275 30.5514 26.4107 30.4997C26.32 30.2961 26.2221 30.0948 26.1116 29.9007C26.0776 29.8457 26.0584 29.7829 26.0559 29.7183C26.0535 29.6537 26.0677 29.5895 26.0974 29.5321C26.6199 28.2922 27.1345 27.0492 27.6554 25.8093C27.719 25.6596 27.751 25.4984 27.7493 25.3357C27.7438 24.3815 27.7469 23.4289 27.7469 22.4629Z" fill="#162D4C"/>
<path d="M45.1222 17.9216C42.8002 17.9216 40.6811 17.227 38.7112 16.0274C38.0143 15.6045 37.3568 15.1198 36.7468 14.5791C36.6307 14.4765 36.6331 14.4047 36.7215 14.2919C37.1998 13.6794 37.8422 13.5089 38.5817 13.5871C38.8408 13.618 39.0865 13.7192 39.292 13.8799C40.8768 15.0448 42.5903 15.9516 44.5129 16.4291C45.5926 16.6957 46.7096 16.7773 47.8166 16.6706C48.0779 16.6469 48.3423 16.6517 48.6059 16.654C48.7148 16.654 48.8426 16.6635 48.8931 16.7835C48.9476 16.9184 48.8632 17.0203 48.77 17.1126C48.5735 17.2882 48.3407 17.4184 48.0881 17.4938C47.2673 17.7779 46.4157 17.8845 45.5531 17.9192C45.411 17.9263 45.2666 17.9216 45.1222 17.9216Z" fill="#162D4C"/>
<path d="M39.2453 17.0703C40.0194 17.5177 40.85 17.8593 41.7148 18.0861C41.9303 18.1442 42.149 18.1896 42.3699 18.2218C42.5001 18.2392 42.5167 18.2944 42.504 18.4018C42.4793 18.7293 42.4061 19.0514 42.287 19.3575C41.8206 20.4427 41.287 21.4987 40.838 22.5934C40.6509 23.0488 40.4575 23.5018 40.3644 23.988C40.2555 24.5405 40.6383 24.9422 41.1955 24.842C41.3454 24.8151 41.3904 24.8514 41.418 24.9903C41.4591 25.2098 41.4811 25.4324 41.4836 25.6557C41.4882 25.7077 41.4761 25.76 41.4492 25.8048C41.4222 25.8496 41.3818 25.8847 41.3336 25.9051C40.714 26.2247 40.1245 26.1103 39.5878 25.7346C39.0188 25.336 38.7986 24.7315 38.7654 24.0606C38.7212 23.2303 38.8309 22.4079 38.9383 21.5863C39.0772 20.5319 39.3029 19.4901 39.4071 18.4294C39.441 18.0837 39.3281 17.7538 39.2974 17.4144C39.2847 17.3102 39.2658 17.2053 39.2453 17.0703Z" fill="#162D4C"/>
<path d="M36.1295 9.49008L33.1304 9.90601C33.1398 9.8192 33.2093 9.79236 33.2535 9.75211C33.7907 9.27857 34.3295 8.8066 34.8699 8.33622C34.9219 8.29123 34.9709 8.19336 35.0601 8.2936L36.1295 9.49008Z" fill="#DCAA10"/>
</svg>
